<?xml version="1.0" standalone="no"?>
 <!DOCTYPE svg PUBLIC "-//W3C//DTD SVG 1.1//EN" 
 "http://www.w3.org/Graphics/SVG/1.1/DTD/svg11.dtd"> 
<svg
  xmlns:svg="http://www.w3.org/2000/svg"
  xmlns="http://www.w3.org/2000/svg"
  xmlns:xlink="http://www.w3.org/1999/xlink"
  version="1.1"
  width="21.000720cm" height="29.700220cm" viewBox="0 0 210007200 297002200">
<title>SVG Picture created as fan-speed-controller-F_Silkscreen.svg date 2022/08/28 14:49:38 </title>
  <desc>Picture generated by PCBNEW </desc>
<g style="fill:#000000; fill-opacity:1.000000;stroke:#000000; stroke-opacity:1.000000;
stroke-linecap:round; stroke-linejoin:round;"
 transform="translate(0 0) scale(1 1)">
</g>
<g style="fill:#000000; fill-opacity:0.0; 
stroke:#000000; stroke-width:0.000000; stroke-opacity:1; 
stroke-linecap:round; stroke-linejoin:round;">
</g>
<g style="fill:#000000; fill-opacity:0.0; 
stroke:#000000; stroke-width:100000.000000; stroke-opacity:1; 
stroke-linecap:round; stroke-linejoin:round;">
<path d="M12055000 12065000
L68570000 12065000
" />
<path d="M12055000 38100000
L12055000 12065000
" />
<path d="M68570000 38100000
L12055000 38100000
" />
<path d="M68570000 12065000
L68570000 38100000
" />
</g>
<g style="fill:#000000; fill-opacity:0.0; 
stroke:#000000; stroke-width:150000.000000; stroke-opacity:1; 
stroke-linecap:round; stroke-linejoin:round;">
<text x="53509785.000000" y="26535000.000000"
textLength="2147381.000000" font-size="1333333.000000" lengthAdjust="spacingAndGlyphs"
text-anchor="middle" opacity="0">D1</text>
<g class="stroked-text"><desc>D1</desc>
<path d="M52771689 26487380
L52771689 25487380
L53009785 25487380
L53152642 25535000
L53247880 25630238
L53295499 25725476
L53343118 25915952
L53343118 26058809
L53295499 26249285
L53247880 26344523
L53152642 26439761
L53009785 26487380
L52771689 26487380
" />
<path d="M54295499 26487380
L53724070 26487380
" />
<path d="M54009785 26487380
L54009785 25487380
L53914546 25630238
L53819308 25725476
L53724070 25773095
" />
</g><text x="55235000.000000" y="26535000.000000"
textLength="1052143.000000" font-size="1333333.000000" lengthAdjust="spacingAndGlyphs"
text-anchor="middle" opacity="0">A</text>
<g class="stroked-text"><desc>A</desc>
<path d="M54996904 26201666
L55473095 26201666
" />
<path d="M54901666 26487380
L55235000 25487380
L55568333 26487380
" />
</g><text x="52258234.000000" y="21895000.000000"
textLength="1195000.000000" font-size="1333333.000000" lengthAdjust="spacingAndGlyphs"
text-anchor="middle" opacity="0">K</text>
<g class="stroked-text"><desc>K</desc>
<path d="M51996329 21847380
L51996329 20847380
" />
<path d="M52567757 21847380
L52139186 21275952
" />
<path d="M52567757 20847380
L51996329 21418809
" />
</g><text x="53539905.000000" y="16375000.000000"
textLength="2147381.000000" font-size="1333333.000000" lengthAdjust="spacingAndGlyphs"
text-anchor="middle" opacity="0">D2</text>
<g class="stroked-text"><desc>D2</desc>
<path d="M52801809 16327380
L52801809 15327380
L53039905 15327380
L53182762 15375000
L53278000 15470238
L53325619 15565476
L53373238 15755952
L53373238 15898809
L53325619 16089285
L53278000 16184523
L53182762 16279761
L53039905 16327380
L52801809 16327380
" />
<path d="M53754190 15422619
L53801809 15375000
L53897047 15327380
L54135143 15327380
L54230381 15375000
L54278000 15422619
L54325619 15517857
L54325619 15613095
L54278000 15755952
L53706571 16327380
L54325619 16327380
" />
</g><text x="55870000.000000" y="16375000.000000"
textLength="1195000.000000" font-size="1333333.000000" lengthAdjust="spacingAndGlyphs"
text-anchor="middle" opacity="0">K</text>
<g class="stroked-text"><desc>K</desc>
<path d="M55608095 16327380
L55608095 15327380
" />
<path d="M56179523 16327380
L55750952 15755952
" />
<path d="M56179523 15327380
L55608095 15898809
" />
</g><text x="47615000.000000" y="21625000.000000"
textLength="2147381.000000" font-size="1333333.000000" lengthAdjust="spacingAndGlyphs"
text-anchor="middle" opacity="0">R1</text>
<g class="stroked-text"><desc>R1</desc>
<path d="M47448333 21577380
L47115000 21101190
" />
<path d="M46876904 21577380
L46876904 20577380
L47257857 20577380
L47353095 20625000
L47400714 20672619
L47448333 20767857
L47448333 20910714
L47400714 21005952
L47353095 21053571
L47257857 21101190
L46876904 21101190
" />
<path d="M48400714 21577380
L47829285 21577380
" />
<path d="M48115000 21577380
L48115000 20577380
L48019761 20720238
L47924523 20815476
L47829285 20863095
" />
</g><text x="30370000.000000" y="26535000.000000"
textLength="2147381.000000" font-size="1333333.000000" lengthAdjust="spacingAndGlyphs"
text-anchor="middle" opacity="0">R2</text>
<g class="stroked-text"><desc>R2</desc>
<path d="M30203333 26487380
L29870000 26011190
" />
<path d="M29631904 26487380
L29631904 25487380
L30012857 25487380
L30108095 25535000
L30155714 25582619
L30203333 25677857
L30203333 25820714
L30155714 25915952
L30108095 25963571
L30012857 26011190
L29631904 26011190
" />
<path d="M30584285 25582619
L30631904 25535000
L30727142 25487380
L30965238 25487380
L31060476 25535000
L31108095 25582619
L31155714 25677857
L31155714 25773095
L31108095 25915952
L30536666 26487380
L31155714 26487380
" />
</g><text x="14595000.000000" y="23995000.000000"
textLength="3242619.000000" font-size="1333333.000000" lengthAdjust="spacingAndGlyphs"
text-anchor="middle" opacity="0">GND</text>
<g class="stroked-text"><desc>GND</desc>
<path d="M13833095 22995000
L13737857 22947380
L13595000 22947380
L13452142 22995000
L13356904 23090238
L13309285 23185476
L13261666 23375952
L13261666 23518809
L13309285 23709285
L13356904 23804523
L13452142 23899761
L13595000 23947380
L13690238 23947380
L13833095 23899761
L13880714 23852142
L13880714 23518809
L13690238 23518809
" />
<path d="M14309285 23947380
L14309285 22947380
L14880714 23947380
L14880714 22947380
" />
<path d="M15356904 23947380
L15356904 22947380
L15595000 22947380
L15737857 22995000
L15833095 23090238
L15880714 23185476
L15928333 23375952
L15928333 23518809
L15880714 23709285
L15833095 23804523
L15737857 23899761
L15595000 23947380
L15356904 23947380
" />
</g><text x="14595000.000000" y="31615000.000000"
textLength="3242619.000000" font-size="1333333.000000" lengthAdjust="spacingAndGlyphs"
text-anchor="middle" opacity="0">+5V</text>
<g class="stroked-text"><desc>+5V</desc>
<path d="M13309285 31186428
L14071190 31186428
" />
<path d="M13690238 31567380
L13690238 30805476
" />
<path d="M15023571 30567380
L14547380 30567380
L14499761 31043571
L14547380 30995952
L14642619 30948333
L14880714 30948333
L14975952 30995952
L15023571 31043571
L15071190 31138809
L15071190 31376904
L15023571 31472142
L14975952 31519761
L14880714 31567380
L14642619 31567380
L14547380 31519761
L14499761 31472142
" />
<path d="M15356904 30567380
L15690238 31567380
L16023571 30567380
" />
</g><text x="38735000.000000" y="32885000.000000"
textLength="3052143.000000" font-size="1333333.000000" lengthAdjust="spacingAndGlyphs"
text-anchor="middle" opacity="0">555</text>
<g class="stroked-text"><desc>555</desc>
<path d="M38020714 31837380
L37544523 31837380
L37496904 32313571
L37544523 32265952
L37639761 32218333
L37877857 32218333
L37973095 32265952
L38020714 32313571
L38068333 32408809
L38068333 32646904
L38020714 32742142
L37973095 32789761
L37877857 32837380
L37639761 32837380
L37544523 32789761
L37496904 32742142
" />
<path d="M38973095 31837380
L38496904 31837380
L38449285 32313571
L38496904 32265952
L38592142 32218333
L38830238 32218333
L38925476 32265952
L38973095 32313571
L39020714 32408809
L39020714 32646904
L38973095 32742142
L38925476 32789761
L38830238 32837380
L38592142 32837380
L38496904 32789761
L38449285 32742142
" />
<path d="M39925476 31837380
L39449285 31837380
L39401666 32313571
L39449285 32265952
L39544523 32218333
L39782619 32218333
L39877857 32265952
L39925476 32313571
L39973095 32408809
L39973095 32646904
L39925476 32742142
L39877857 32789761
L39782619 32837380
L39544523 32837380
L39449285 32789761
L39401666 32742142
" />
</g><text x="59045000.000000" y="16710000.000000"
textLength="3004524.000000" font-size="1333333.000000" lengthAdjust="spacingAndGlyphs"
text-anchor="middle" opacity="0">POT</text>
<g class="stroked-text"><desc>POT</desc>
<path d="M57878333 16662380
L57878333 15662380
L58259285 15662380
L58354523 15710000
L58402142 15757619
L58449761 15852857
L58449761 15995714
L58402142 16090952
L58354523 16138571
L58259285 16186190
L57878333 16186190
" />
<path d="M59068809 15662380
L59259285 15662380
L59354523 15710000
L59449761 15805238
L59497380 15995714
L59497380 16329047
L59449761 16519523
L59354523 16614761
L59259285 16662380
L59068809 16662380
L58973571 16614761
L58878333 16519523
L58830714 16329047
L58830714 15995714
L58878333 15805238
L58973571 15710000
L59068809 15662380
" />
<path d="M59783095 15662380
L60354523 15662380
" />
<path d="M60068809 16662380
L60068809 15662380
" />
</g><text x="25390000.000000" y="20185000.000000"
textLength="3766429.000000" font-size="1333333.000000" lengthAdjust="spacingAndGlyphs"
text-anchor="middle" opacity="0">NFET</text>
<g class="stroked-text"><desc>NFET</desc>
<path d="M23842380 20137380
L23842380 19137380
L24413809 20137380
L24413809 19137380
" />
<path d="M25223333 19613571
L24890000 19613571
" />
<path d="M24890000 20137380
L24890000 19137380
L25366190 19137380
" />
<path d="M25747142 19613571
L26080476 19613571
" />
<path d="M26223333 20137380
L25747142 20137380
L25747142 19137380
L26223333 19137380
" />
<path d="M26509047 19137380
L27080476 19137380
" />
<path d="M26794761 20137380
L26794761 19137380
" />
</g><text x="19670000.000000" y="23995000.000000"
textLength="4195000.000000" font-size="1333333.000000" lengthAdjust="spacingAndGlyphs"
text-anchor="middle" opacity="0">MOUT</text>
<g class="stroked-text"><desc>MOUT</desc>
<path d="M17908095 23947380
L17908095 22947380
L18241428 23661666
L18574761 22947380
L18574761 23947380
" />
<path d="M19241428 22947380
L19431904 22947380
L19527142 22995000
L19622380 23090238
L19670000 23280714
L19670000 23614047
L19622380 23804523
L19527142 23899761
L19431904 23947380
L19241428 23947380
L19146190 23899761
L19050952 23804523
L19003333 23614047
L19003333 23280714
L19050952 23090238
L19146190 22995000
L19241428 22947380
" />
<path d="M20098571 22947380
L20098571 23756904
L20146190 23852142
L20193809 23899761
L20289047 23947380
L20479523 23947380
L20574761 23899761
L20622380 23852142
L20670000 23756904
L20670000 22947380
" />
<path d="M21003333 22947380
L21574761 22947380
" />
<path d="M21289047 23947380
L21289047 22947380
" />
</g><text x="48845000.000000" y="29710000.000000"
textLength="2147381.000000" font-size="1333333.000000" lengthAdjust="spacingAndGlyphs"
text-anchor="middle" opacity="0">C2</text>
<g class="stroked-text"><desc>C2</desc>
<path d="M48678333 29567142
L48630714 29614761
L48487857 29662380
L48392619 29662380
L48249761 29614761
L48154523 29519523
L48106904 29424285
L48059285 29233809
L48059285 29090952
L48106904 28900476
L48154523 28805238
L48249761 28710000
L48392619 28662380
L48487857 28662380
L48630714 28710000
L48678333 28757619
" />
<path d="M49059285 28757619
L49106904 28710000
L49202142 28662380
L49440238 28662380
L49535476 28710000
L49583095 28757619
L49630714 28852857
L49630714 28948095
L49583095 29090952
L49011666 29662380
L49630714 29662380
" />
</g><text x="57775000.000000" y="33520000.000000"
textLength="2147381.000000" font-size="1333333.000000" lengthAdjust="spacingAndGlyphs"
text-anchor="middle" opacity="0">C1</text>
<g class="stroked-text"><desc>C1</desc>
<path d="M57608333 33377142
L57560714 33424761
L57417857 33472380
L57322619 33472380
L57179761 33424761
L57084523 33329523
L57036904 33234285
L56989285 33043809
L56989285 32900952
L57036904 32710476
L57084523 32615238
L57179761 32520000
L57322619 32472380
L57417857 32472380
L57560714 32520000
L57608333 32567619
" />
<path d="M58560714 33472380
L57989285 33472380
" />
<path d="M58275000 33472380
L58275000 32472380
L58179761 32615238
L58084523 32710476
L57989285 32758095
" />
</g></g>
<g style="fill:#000000; fill-opacity:0.0; 
stroke:#000000; stroke-width:120000.000000; stroke-opacity:1; 
stroke-linecap:round; stroke-linejoin:round;">
<path d="M53569387.117640 22394999.901306 A1711468.000000 1711468.000000 0.0 1 0 53509784.878539 24662365.886709" />
<path d="M53539904.878539 17337817.113291 A1711468.000000 1711468.000000 0.0 1 0 53599507.117640 19605183.098694" />
<circle cx="46345000.000000" cy="23495000.000000" r="1370000.000000" /> 
<path d="M47715000 23495000
L47785000 23495000
" />
<circle cx="31740000.000000" cy="28575000.000000" r="1370000.000000" /> 
<path d="M30370000 28575000
L30300000 28575000
" />
<path d="M15925000 24705000
L15925000 26035000
" />
<path d="M13325000 24705000
L13325000 27365000
" />
<path d="M13265000 24705000
L13265000 27365000
" />
<path d="M13325000 27365000
L13265000 27365000
" />
<path d="M13325000 24705000
L13265000 24705000
" />
<path d="M14595000 24705000
L15925000 24705000
" />
<path d="M14595000 27245000
L15925000 27245000
" />
<path d="M13325000 27245000
L13265000 27245000
" />
<path d="M13325000 29905000
L13265000 29905000
" />
<path d="M13265000 27245000
L13265000 29905000
" />
<path d="M13325000 27245000
L13325000 29905000
" />
<path d="M15925000 27245000
L15925000 28575000
" />
<path d="M41385000 20905000
L39735000 20905000
" />
<path d="M36085000 20905000
L36085000 31185000
" />
<path d="M41385000 31185000
L41385000 20905000
" />
<path d="M37735000 20905000
L36085000 20905000
" />
<path d="M36085000 31185000
L41385000 31185000
" />
<path d="M37735000.000000 20905000.000000 A1000000.000000 1000000.000000 0.0 0 0 39735000.000000 20905000.000000" />
<path d="M56510000 17340000
L61580000 17340000
" />
<path d="M61580000 17340000
L61580000 27110000
" />
<path d="M56510000 17340000
L56510000 27110000
" />
<path d="M56510000 27110000
L61580000 27110000
" />
</g>
<g style="fill:#000000; fill-opacity:0.0; 
stroke:#000000; stroke-width:100000.000000; stroke-opacity:1; 
stroke-linecap:round; stroke-linejoin:round;">
<path d="M24100000 31135000
L24100000 21035000
" />
<path d="M27790000 20935000
L27390000 20935000
" />
<path d="M27790000 20935000
L27790000 21335000
" />
<path d="M27790000 31135000
L23390000 31135000
" />
<path d="M27790000 31135000
L27790000 30735000
" />
<path d="M22990000 31135000
L23390000 31135000
" />
<path d="M22990000 31135000
L22990000 30735000
" />
<path d="M22990000 21335000
L22990000 20935000
" />
<path d="M22990000 20935000
L23390000 20935000
" />
</g>
<g style="fill:#000000; fill-opacity:0.0; 
stroke:#000000; stroke-width:120000.000000; stroke-opacity:1; 
stroke-linecap:round; stroke-linejoin:round;">
<path d="M19670000 24705000
L22270000 24705000
" />
<path d="M17070000 27365000
L17070000 26035000
" />
<path d="M19670000 27365000
L19670000 24705000
" />
<path d="M19670000 27365000
L22270000 27365000
" />
<path d="M22270000 27365000
L22270000 24705000
" />
<path d="M18400000 27365000
L17070000 27365000
" />
<path d="M46575000 32185000
L51115000 32185000
" />
<path d="M46575000 30045000
L51115000 30045000
" />
<path d="M51115000 32170000
L51115000 32185000
" />
<path d="M46575000 30045000
L46575000 30060000
" />
<path d="M51115000 30045000
L51115000 30060000
" />
<path d="M46575000 32170000
L46575000 32185000
" />
<path d="M55505000 32185000
L60045000 32185000
" />
<path d="M55505000 30045000
L60045000 30045000
" />
<path d="M60045000 32170000
L60045000 32185000
" />
<path d="M55505000 30045000
L55505000 30060000
" />
<path d="M60045000 30045000
L60045000 30060000
" />
<path d="M55505000 32170000
L55505000 32185000
" />
<g >
</g>
<g >
</g>
<g >
</g>
<g >
</g>
<g >
</g>
<g >
</g>
<g >
</g>
<g >
</g>
<g >
</g>
<g >
</g>
<g >
</g>
<g >
</g>
<g >
</g>
<g >
</g>
<g >
</g>
<g >
</g>
<g >
</g>
<g >
</g>
<g >
</g>
</g>
<g style="fill:#FFFFFF; fill-opacity:0.0; 
stroke:#FFFFFF; stroke-width:120000.000000; stroke-opacity:1; 
stroke-linecap:round; stroke-linejoin:round;">
</g>
<g style="fill:#FFFFFF; fill-opacity:1.0; 
stroke:#FFFFFF; stroke-width:1.000000; stroke-opacity:1; 
stroke-linecap:round; stroke-linejoin:round;">
<circle cx="38725000.000000" cy="17145000.000000" r="1000000.000000" /> 
</g>
<g style="fill:#FFFFFF; fill-opacity:1.0; 
stroke:#FFFFFF; stroke-width:21200.000000; stroke-opacity:1; 
stroke-linecap:round; stroke-linejoin:round;">
</g>
<g style="fill:#FFFFFF; fill-opacity:1.0; 
stroke:#FFFFFF; stroke-width:1.000000; stroke-opacity:1; 
stroke-linecap:round; stroke-linejoin:round;">
<circle cx="33645000.000000" cy="33655000.000000" r="1000000.000000" /> 
</g>
<g style="fill:#FFFFFF; fill-opacity:1.0; 
stroke:#FFFFFF; stroke-width:21200.000000; stroke-opacity:1; 
stroke-linecap:round; stroke-linejoin:round;">
</g>
<g style="fill:#FFFFFF; fill-opacity:1.0; 
stroke:#FFFFFF; stroke-width:1.000000; stroke-opacity:1; 
stroke-linecap:round; stroke-linejoin:round;">
<circle cx="64760000.000000" cy="15875000.000000" r="1599999.500000" /> 
</g>
<g style="fill:#FFFFFF; fill-opacity:1.0; 
stroke:#FFFFFF; stroke-width:21200.000000; stroke-opacity:1; 
stroke-linecap:round; stroke-linejoin:round;">
</g>
<g style="fill:#FFFFFF; fill-opacity:1.0; 
stroke:#FFFFFF; stroke-width:1.000000; stroke-opacity:1; 
stroke-linecap:round; stroke-linejoin:round;">
<circle cx="15865000.000000" cy="15875000.000000" r="1599999.500000" /> 
</g>
<g style="fill:#FFFFFF; fill-opacity:1.0; 
stroke:#FFFFFF; stroke-width:21200.000000; stroke-opacity:1; 
stroke-linecap:round; stroke-linejoin:round;">
</g>
<g style="fill:#FFFFFF; fill-opacity:1.0; 
stroke:#FFFFFF; stroke-width:1.000000; stroke-opacity:1; 
stroke-linecap:round; stroke-linejoin:round;">
<circle cx="15865000.000000" cy="34925000.000000" r="1599999.500000" /> 
</g>
<g style="fill:#FFFFFF; fill-opacity:1.0; 
stroke:#FFFFFF; stroke-width:21200.000000; stroke-opacity:1; 
stroke-linecap:round; stroke-linejoin:round;">
</g>
<g style="fill:#FFFFFF; fill-opacity:1.0; 
stroke:#FFFFFF; stroke-width:1.000000; stroke-opacity:1; 
stroke-linecap:round; stroke-linejoin:round;">
<circle cx="64760000.000000" cy="34925000.000000" r="1599999.500000" /> 
</g>
<g style="fill:#FFFFFF; fill-opacity:1.0; 
stroke:#FFFFFF; stroke-width:21200.000000; stroke-opacity:1; 
stroke-linecap:round; stroke-linejoin:round;">
</g>
<g style="fill:#FFFFFF; fill-opacity:1.0; 
stroke:#FFFFFF; stroke-width:1.000000; stroke-opacity:1; 
stroke-linecap:round; stroke-linejoin:round;">
<circle cx="54798234.000000" cy="23495000.000000" r="550000.000000" /> 
</g>
<g style="fill:#FFFFFF; fill-opacity:1.0; 
stroke:#FFFFFF; stroke-width:21200.000000; stroke-opacity:1; 
stroke-linecap:round; stroke-linejoin:round;">
</g>
<g style="fill:#FFFFFF; fill-opacity:1.0; 
stroke:#FFFFFF; stroke-width:1.000000; stroke-opacity:1; 
stroke-linecap:round; stroke-linejoin:round;">
<circle cx="52258234.000000" cy="23495000.000000" r="550000.000000" /> 
</g>
<g style="fill:#FFFFFF; fill-opacity:1.0; 
stroke:#FFFFFF; stroke-width:21200.000000; stroke-opacity:1; 
stroke-linecap:round; stroke-linejoin:round;">
</g>
<g style="fill:#FFFFFF; fill-opacity:1.0; 
stroke:#FFFFFF; stroke-width:1.000000; stroke-opacity:1; 
stroke-linecap:round; stroke-linejoin:round;">
<circle cx="54828354.000000" cy="18505183.000000" r="550000.000000" /> 
</g>
<g style="fill:#FFFFFF; fill-opacity:1.0; 
stroke:#FFFFFF; stroke-width:21200.000000; stroke-opacity:1; 
stroke-linecap:round; stroke-linejoin:round;">
</g>
<g style="fill:#FFFFFF; fill-opacity:1.0; 
stroke:#FFFFFF; stroke-width:1.000000; stroke-opacity:1; 
stroke-linecap:round; stroke-linejoin:round;">
<circle cx="52288354.000000" cy="18505183.000000" r="550000.000000" /> 
</g>
<g style="fill:#FFFFFF; fill-opacity:1.0; 
stroke:#FFFFFF; stroke-width:21200.000000; stroke-opacity:1; 
stroke-linecap:round; stroke-linejoin:round;">
</g>
<g style="fill:#FFFFFF; fill-opacity:1.0; 
stroke:#FFFFFF; stroke-width:1.000000; stroke-opacity:1; 
stroke-linecap:round; stroke-linejoin:round;">
<circle cx="48885000.000000" cy="23495000.000000" r="400000.000000" /> 
</g>
<g style="fill:#FFFFFF; fill-opacity:1.0; 
stroke:#FFFFFF; stroke-width:21200.000000; stroke-opacity:1; 
stroke-linecap:round; stroke-linejoin:round;">
</g>
<g style="fill:#FFFFFF; fill-opacity:1.0; 
stroke:#FFFFFF; stroke-width:1.000000; stroke-opacity:1; 
stroke-linecap:round; stroke-linejoin:round;">
<circle cx="46345000.000000" cy="23495000.000000" r="400000.000000" /> 
</g>
<g style="fill:#FFFFFF; fill-opacity:1.0; 
stroke:#FFFFFF; stroke-width:21200.000000; stroke-opacity:1; 
stroke-linecap:round; stroke-linejoin:round;">
</g>
<g style="fill:#FFFFFF; fill-opacity:1.0; 
stroke:#FFFFFF; stroke-width:1.000000; stroke-opacity:1; 
stroke-linecap:round; stroke-linejoin:round;">
<circle cx="29200000.000000" cy="28575000.000000" r="400000.000000" /> 
</g>
<g style="fill:#FFFFFF; fill-opacity:1.0; 
stroke:#FFFFFF; stroke-width:21200.000000; stroke-opacity:1; 
stroke-linecap:round; stroke-linejoin:round;">
</g>
<g style="fill:#FFFFFF; fill-opacity:1.0; 
stroke:#FFFFFF; stroke-width:1.000000; stroke-opacity:1; 
stroke-linecap:round; stroke-linejoin:round;">
<circle cx="31740000.000000" cy="28575000.000000" r="400000.000000" /> 
</g>
<g style="fill:#FFFFFF; fill-opacity:1.0; 
stroke:#FFFFFF; stroke-width:21200.000000; stroke-opacity:1; 
stroke-linecap:round; stroke-linejoin:round;">
</g>
<g style="fill:#FFFFFF; fill-opacity:1.0; 
stroke:#FFFFFF; stroke-width:1.000000; stroke-opacity:1; 
stroke-linecap:round; stroke-linejoin:round;">
<circle cx="14595000.000000" cy="26035000.000000" r="500000.000000" /> 
</g>
<g style="fill:#FFFFFF; fill-opacity:1.0; 
stroke:#FFFFFF; stroke-width:21200.000000; stroke-opacity:1; 
stroke-linecap:round; stroke-linejoin:round;">
</g>
<g style="fill:#FFFFFF; fill-opacity:1.0; 
stroke:#FFFFFF; stroke-width:1.000000; stroke-opacity:1; 
stroke-linecap:round; stroke-linejoin:round;">
<circle cx="14595000.000000" cy="28575000.000000" r="500000.000000" /> 
</g>
<g style="fill:#FFFFFF; fill-opacity:1.0; 
stroke:#FFFFFF; stroke-width:21200.000000; stroke-opacity:1; 
stroke-linecap:round; stroke-linejoin:round;">
</g>
<g style="fill:#FFFFFF; fill-opacity:1.0; 
stroke:#FFFFFF; stroke-width:1.000000; stroke-opacity:1; 
stroke-linecap:round; stroke-linejoin:round;">
<circle cx="34925000.000000" cy="22235000.000000" r="400000.000000" /> 
</g>
<g style="fill:#FFFFFF; fill-opacity:1.0; 
stroke:#FFFFFF; stroke-width:21200.000000; stroke-opacity:1; 
stroke-linecap:round; stroke-linejoin:round;">
</g>
<g style="fill:#FFFFFF; fill-opacity:1.0; 
stroke:#FFFFFF; stroke-width:1.000000; stroke-opacity:1; 
stroke-linecap:round; stroke-linejoin:round;">
<circle cx="34925000.000000" cy="24775000.000000" r="400000.000000" /> 
</g>
<g style="fill:#FFFFFF; fill-opacity:1.0; 
stroke:#FFFFFF; stroke-width:21200.000000; stroke-opacity:1; 
stroke-linecap:round; stroke-linejoin:round;">
</g>
<g style="fill:#FFFFFF; fill-opacity:1.0; 
stroke:#FFFFFF; stroke-width:1.000000; stroke-opacity:1; 
stroke-linecap:round; stroke-linejoin:round;">
<circle cx="34925000.000000" cy="27315000.000000" r="400000.000000" /> 
</g>
<g style="fill:#FFFFFF; fill-opacity:1.0; 
stroke:#FFFFFF; stroke-width:21200.000000; stroke-opacity:1; 
stroke-linecap:round; stroke-linejoin:round;">
</g>
<g style="fill:#FFFFFF; fill-opacity:1.0; 
stroke:#FFFFFF; stroke-width:1.000000; stroke-opacity:1; 
stroke-linecap:round; stroke-linejoin:round;">
<circle cx="34925000.000000" cy="29855000.000000" r="400000.000000" /> 
</g>
<g style="fill:#FFFFFF; fill-opacity:1.0; 
stroke:#FFFFFF; stroke-width:21200.000000; stroke-opacity:1; 
stroke-linecap:round; stroke-linejoin:round;">
</g>
<g style="fill:#FFFFFF; fill-opacity:1.0; 
stroke:#FFFFFF; stroke-width:1.000000; stroke-opacity:1; 
stroke-linecap:round; stroke-linejoin:round;">
<circle cx="42545000.000000" cy="29855000.000000" r="400000.000000" /> 
</g>
<g style="fill:#FFFFFF; fill-opacity:1.0; 
stroke:#FFFFFF; stroke-width:21200.000000; stroke-opacity:1; 
stroke-linecap:round; stroke-linejoin:round;">
</g>
<g style="fill:#FFFFFF; fill-opacity:1.0; 
stroke:#FFFFFF; stroke-width:1.000000; stroke-opacity:1; 
stroke-linecap:round; stroke-linejoin:round;">
<circle cx="42545000.000000" cy="27315000.000000" r="400000.000000" /> 
</g>
<g style="fill:#FFFFFF; fill-opacity:1.0; 
stroke:#FFFFFF; stroke-width:21200.000000; stroke-opacity:1; 
stroke-linecap:round; stroke-linejoin:round;">
</g>
<g style="fill:#FFFFFF; fill-opacity:1.0; 
stroke:#FFFFFF; stroke-width:1.000000; stroke-opacity:1; 
stroke-linecap:round; stroke-linejoin:round;">
<circle cx="42545000.000000" cy="24775000.000000" r="400000.000000" /> 
</g>
<g style="fill:#FFFFFF; fill-opacity:1.0; 
stroke:#FFFFFF; stroke-width:21200.000000; stroke-opacity:1; 
stroke-linecap:round; stroke-linejoin:round;">
</g>
<g style="fill:#FFFFFF; fill-opacity:1.0; 
stroke:#FFFFFF; stroke-width:1.000000; stroke-opacity:1; 
stroke-linecap:round; stroke-linejoin:round;">
<circle cx="42545000.000000" cy="22235000.000000" r="400000.000000" /> 
</g>
<g style="fill:#FFFFFF; fill-opacity:1.0; 
stroke:#FFFFFF; stroke-width:21200.000000; stroke-opacity:1; 
stroke-linecap:round; stroke-linejoin:round;">
</g>
<g style="fill:#FFFFFF; fill-opacity:1.0; 
stroke:#FFFFFF; stroke-width:1.000000; stroke-opacity:1; 
stroke-linecap:round; stroke-linejoin:round;">
<circle cx="59045000.000000" cy="24765000.000000" r="400000.000000" /> 
</g>
<g style="fill:#FFFFFF; fill-opacity:1.0; 
stroke:#FFFFFF; stroke-width:21200.000000; stroke-opacity:1; 
stroke-linecap:round; stroke-linejoin:round;">
</g>
<g style="fill:#FFFFFF; fill-opacity:1.0; 
stroke:#FFFFFF; stroke-width:1.000000; stroke-opacity:1; 
stroke-linecap:round; stroke-linejoin:round;">
<circle cx="59045000.000000" cy="22225000.000000" r="400000.000000" /> 
</g>
<g style="fill:#FFFFFF; fill-opacity:1.0; 
stroke:#FFFFFF; stroke-width:21200.000000; stroke-opacity:1; 
stroke-linecap:round; stroke-linejoin:round;">
</g>
<g style="fill:#FFFFFF; fill-opacity:1.0; 
stroke:#FFFFFF; stroke-width:1.000000; stroke-opacity:1; 
stroke-linecap:round; stroke-linejoin:round;">
<circle cx="59045000.000000" cy="19685000.000000" r="400000.000000" /> 
</g>
<g style="fill:#FFFFFF; fill-opacity:1.0; 
stroke:#FFFFFF; stroke-width:21200.000000; stroke-opacity:1; 
stroke-linecap:round; stroke-linejoin:round;">
</g>
<g style="fill:#FFFFFF; fill-opacity:1.0; 
stroke:#FFFFFF; stroke-width:1.000000; stroke-opacity:1; 
stroke-linecap:round; stroke-linejoin:round;">
<circle cx="25390000.000000" cy="28575000.000000" r="500000.000000" /> 
</g>
<g style="fill:#FFFFFF; fill-opacity:1.0; 
stroke:#FFFFFF; stroke-width:21200.000000; stroke-opacity:1; 
stroke-linecap:round; stroke-linejoin:round;">
</g>
<g style="fill:#FFFFFF; fill-opacity:1.0; 
stroke:#FFFFFF; stroke-width:1.000000; stroke-opacity:1; 
stroke-linecap:round; stroke-linejoin:round;">
<circle cx="25390000.000000" cy="26035000.000000" r="500000.000000" /> 
</g>
<g style="fill:#FFFFFF; fill-opacity:1.0; 
stroke:#FFFFFF; stroke-width:21200.000000; stroke-opacity:1; 
stroke-linecap:round; stroke-linejoin:round;">
</g>
<g style="fill:#FFFFFF; fill-opacity:1.0; 
stroke:#FFFFFF; stroke-width:1.000000; stroke-opacity:1; 
stroke-linecap:round; stroke-linejoin:round;">
<circle cx="25390000.000000" cy="23495000.000000" r="500000.000000" /> 
</g>
<g style="fill:#FFFFFF; fill-opacity:1.0; 
stroke:#FFFFFF; stroke-width:21200.000000; stroke-opacity:1; 
stroke-linecap:round; stroke-linejoin:round;">
</g>
<g style="fill:#FFFFFF; fill-opacity:1.0; 
stroke:#FFFFFF; stroke-width:1.000000; stroke-opacity:1; 
stroke-linecap:round; stroke-linejoin:round;">
<circle cx="20940000.000000" cy="26035000.000000" r="500000.000000" /> 
</g>
<g style="fill:#FFFFFF; fill-opacity:1.0; 
stroke:#FFFFFF; stroke-width:21200.000000; stroke-opacity:1; 
stroke-linecap:round; stroke-linejoin:round;">
</g>
<g style="fill:#FFFFFF; fill-opacity:1.0; 
stroke:#FFFFFF; stroke-width:1.000000; stroke-opacity:1; 
stroke-linecap:round; stroke-linejoin:round;">
<circle cx="18400000.000000" cy="26035000.000000" r="500000.000000" /> 
</g>
<g style="fill:#FFFFFF; fill-opacity:1.0; 
stroke:#FFFFFF; stroke-width:21200.000000; stroke-opacity:1; 
stroke-linecap:round; stroke-linejoin:round;">
</g>
<g style="fill:#FFFFFF; fill-opacity:1.0; 
stroke:#FFFFFF; stroke-width:1.000000; stroke-opacity:1; 
stroke-linecap:round; stroke-linejoin:round;">
<circle cx="51345000.000000" cy="31115000.000000" r="400000.000000" /> 
</g>
<g style="fill:#FFFFFF; fill-opacity:1.0; 
stroke:#FFFFFF; stroke-width:21200.000000; stroke-opacity:1; 
stroke-linecap:round; stroke-linejoin:round;">
</g>
<g style="fill:#FFFFFF; fill-opacity:1.0; 
stroke:#FFFFFF; stroke-width:1.000000; stroke-opacity:1; 
stroke-linecap:round; stroke-linejoin:round;">
<circle cx="46345000.000000" cy="31115000.000000" r="400000.000000" /> 
</g>
<g style="fill:#FFFFFF; fill-opacity:1.0; 
stroke:#FFFFFF; stroke-width:21200.000000; stroke-opacity:1; 
stroke-linecap:round; stroke-linejoin:round;">
</g>
<g style="fill:#FFFFFF; fill-opacity:1.0; 
stroke:#FFFFFF; stroke-width:1.000000; stroke-opacity:1; 
stroke-linecap:round; stroke-linejoin:round;">
<circle cx="60275000.000000" cy="31115000.000000" r="400000.000000" /> 
</g>
<g style="fill:#FFFFFF; fill-opacity:1.0; 
stroke:#FFFFFF; stroke-width:21200.000000; stroke-opacity:1; 
stroke-linecap:round; stroke-linejoin:round;">
</g>
<g style="fill:#FFFFFF; fill-opacity:1.0; 
stroke:#FFFFFF; stroke-width:1.000000; stroke-opacity:1; 
stroke-linecap:round; stroke-linejoin:round;">
<circle cx="55275000.000000" cy="31115000.000000" r="400000.000000" /> 
</g>
<g style="fill:#FFFFFF; fill-opacity:1.0; 
stroke:#FFFFFF; stroke-width:21200.000000; stroke-opacity:1; 
stroke-linecap:round; stroke-linejoin:round;">
</g>
<g style="fill:#000000; fill-opacity:1.0; 
stroke:#000000; stroke-width:21200.000000; stroke-opacity:1; 
stroke-linecap:round; stroke-linejoin:round;">
</g> 
</svg>
